<svg version="1.1" id="Layer_1" xmlns="http://www.w3.org/2000/svg" xmlns:xlink="http://www.w3.org/1999/xlink" x="0px" y="0px"
	 width="100%" viewBox="0 0 1200 1200" enable-background="new 0 0 1200 1200" xml:space="preserve">
<path fill="#FFFFFF" opacity="1.000000" stroke="none" 
	d="
M772.000000,1201.000000 
	C514.666687,1201.000000 257.833344,1201.000000 1.000000,1201.000000 
	C1.000000,801.000000 1.000000,401.000000 1.000000,1.000000 
	C401.000000,1.000000 801.000000,1.000000 1201.000000,1.000000 
	C1201.000000,401.000000 1201.000000,801.000000 1201.000000,1201.000000 
	C1058.166626,1201.000000 915.333313,1201.000000 772.000000,1201.000000 
M478.992859,649.382385 
	C478.687317,649.165466 478.381744,648.948547 477.706879,648.178284 
	C462.467682,639.466003 447.228516,630.753723 431.471863,621.603577 
	C428.409180,619.918457 425.346527,618.233337 422.226166,616.682129 
	C422.226166,616.682129 422.357300,616.618408 421.967133,616.088562 
	C418.003418,613.989441 414.039734,611.890381 410.064240,609.904297 
	C410.064240,609.904297 410.175293,609.880249 409.862762,609.276306 
	C403.261566,605.480164 396.660370,601.684021 390.039581,597.974365 
	C390.039581,597.974365 390.117218,597.931519 389.677704,597.410583 
	C380.923584,592.442017 372.169495,587.473450 363.265564,582.652832 
	C363.265564,582.652832 363.352478,582.461060 362.929749,582.010254 
	C361.450928,581.217224 359.972137,580.424194 358.403748,579.626709 
	C358.403748,579.626709 358.356628,579.703064 358.100311,579.206726 
	C357.749847,579.091614 357.399384,578.976501 357.053436,578.947510 
	C357.053436,578.947510 357.135254,578.920410 356.761688,578.434875 
	C356.202911,578.205139 355.644135,577.975403 355.089355,577.880859 
	C355.089355,577.880859 355.215179,577.831055 354.809906,577.281433 
	C348.356293,573.555786 341.909912,569.817566 335.447693,566.106873 
	C312.463837,552.909607 289.474609,539.721558 266.415710,526.566345 
	C266.415710,526.566345 266.363892,526.504944 265.940735,526.029419 
	C264.293030,525.068298 262.645325,524.107178 260.885590,523.080627 
	C257.484467,528.921021 254.312119,534.342712 251.172424,539.783203 
	C250.596970,540.780396 250.154190,541.854187 249.126251,543.297363 
	C246.406403,547.999878 243.686539,552.702332 240.801468,557.690491 
	C247.724228,561.563599 254.363678,565.278198 261.467468,569.397278 
	C262.195984,569.752808 262.924500,570.108398 263.732941,570.443970 
	C263.732941,570.443970 263.697113,570.369812 264.090057,570.913574 
	C277.070129,578.324951 290.050201,585.736328 303.149628,593.234436 
	C303.149628,593.234436 303.289337,593.186951 303.608398,593.721497 
	C303.994720,593.858948 304.381042,593.996460 305.149841,594.710449 
	C316.431946,601.143372 327.714050,607.576355 339.518463,614.430908 
	C351.220428,621.117126 362.922394,627.803345 375.003479,634.326477 
	C375.003479,634.326477 374.623199,634.471924 375.029785,634.979980 
	C381.220581,638.484009 387.411377,641.988037 393.826752,645.127808 
	C393.826752,645.127808 393.641876,645.513733 394.072845,645.984375 
	C398.944519,648.709778 403.816193,651.435120 409.084442,654.734802 
	C416.609131,658.979248 424.133850,663.223755 431.770569,667.474487 
	C431.770569,667.474487 431.679962,667.408325 432.088287,667.930115 
	C443.367950,674.347290 454.647614,680.764465 465.929199,687.083374 
	C465.929199,687.083374 465.836273,687.115295 466.218781,687.657104 
	C467.389069,688.249268 468.559357,688.841492 469.784912,689.294800 
	C469.784912,689.294800 469.655975,689.370483 470.016571,689.860474 
	C470.930603,690.288818 471.844635,690.717163 473.150513,691.714661 
	C479.398224,695.184448 485.645935,698.654297 492.278503,702.674622 
	C494.661346,703.974426 497.044189,705.274170 499.888275,707.033997 
	C501.435272,707.873352 502.982269,708.712769 505.028534,710.009094 
	C527.967896,723.090393 550.937805,736.118530 573.830078,749.281738 
	C581.861267,753.899719 589.648499,758.941650 597.678040,763.562744 
	C599.132935,764.400085 601.695862,764.962097 602.949768,764.248901 
	C619.079895,755.074585 635.065063,745.645508 651.643311,736.147217 
	C651.882812,735.888306 652.122314,735.629456 652.474060,735.510498 
	C652.474060,735.510498 652.651550,735.485107 653.243652,735.227661 
	C655.278931,734.004517 657.314209,732.781372 659.354309,731.465149 
	C659.354309,731.465149 659.437744,731.506714 660.062317,731.279480 
	C661.760681,730.221802 663.459045,729.164124 665.067810,728.059692 
	C665.067810,728.059692 665.093445,728.157349 665.787903,728.004395 
	C683.312134,717.801697 700.836426,707.598999 718.168457,697.299011 
	C718.168457,697.299011 718.311951,697.459778 719.004578,697.269409 
	C724.723999,693.883789 730.443481,690.498230 736.067627,687.062195 
	C736.067627,687.062195 736.103882,687.163696 736.797668,686.993469 
	C747.970337,680.468994 759.143066,673.944519 770.321533,667.458435 
	C770.321533,667.458435 770.357727,667.472656 771.029785,667.259277 
	C783.464478,660.035400 795.899170,652.811584 808.378540,645.499695 
	C808.378540,645.499695 808.476379,645.512146 809.116333,645.256348 
	C818.780945,639.599121 828.445496,633.941895 838.817627,628.115295 
	C843.668640,625.220886 848.519653,622.326477 853.020142,619.293152 
	C853.020142,619.293152 853.350891,619.474182 854.032715,619.264893 
	C858.221863,616.797119 862.411072,614.329407 867.319031,611.752075 
	C898.522034,593.745056 929.725037,575.738037 961.131104,557.613892 
	C954.378906,545.948486 947.764282,534.520813 941.030151,522.886719 
	C935.347717,526.318909 930.117859,529.477722 924.194092,532.854736 
	C912.360168,539.782593 900.526184,546.710510 888.857056,553.625122 
	C888.857056,553.625122 888.704529,553.561279 888.022583,553.768677 
	C874.355713,561.721558 860.688782,569.674438 846.517334,577.743591 
	C845.963745,578.133179 845.410217,578.522766 844.938110,578.942505 
	C844.938110,578.942505 844.942871,578.855835 844.392456,578.947632 
	C844.139709,579.195068 843.886902,579.442566 843.786865,579.652039 
	C843.786865,579.652039 843.670288,579.546326 843.034729,579.747498 
	C841.567871,580.652344 840.101074,581.557129 838.601685,582.541626 
	C838.601685,582.541626 838.535461,582.486572 837.932312,582.707703 
	C836.627747,583.485596 835.323120,584.263550 833.535583,585.075073 
	C833.210449,585.210938 833.010986,585.451111 832.387085,585.921997 
	C832.135803,586.173828 831.884521,586.425659 831.749268,586.586060 
	C831.749268,586.586060 831.616943,586.520386 830.948364,586.743225 
	C813.845154,596.688354 796.741943,606.633545 779.954895,616.734070 
	C779.954895,616.734070 779.665161,616.533813 778.982849,616.730469 
	C775.577271,618.786316 772.171753,620.842163 768.308289,622.932373 
	C767.974854,622.984619 767.746033,623.167664 767.844543,623.972229 
	C767.761414,623.812866 767.678284,623.653564 766.956421,623.699097 
	C765.251160,624.764099 763.545959,625.829102 761.933533,626.924927 
	C761.933533,626.924927 761.933350,626.827148 761.231750,626.991638 
	C751.485535,632.655945 741.739319,638.320251 731.302368,644.111633 
	C727.161255,646.599792 723.020081,649.088013 718.179932,651.799622 
	C708.667114,657.352661 699.154297,662.905762 689.622070,668.551697 
	C689.622070,668.551697 689.548767,668.491577 688.899536,668.737244 
	C682.810974,672.305481 676.722473,675.873718 670.599365,679.525818 
	C670.599365,679.525818 670.521667,679.479004 669.881042,679.721069 
	C666.511841,681.751038 663.142700,683.781006 659.893066,685.853638 
	C659.893066,685.853638 659.828369,685.744507 659.139954,685.914978 
	C656.643921,687.427795 654.147827,688.940674 651.603577,690.529480 
	C651.603577,690.529480 651.519897,690.496338 650.877930,690.748413 
	C642.191467,695.788269 633.505005,700.828125 624.921692,705.899170 
	C624.921692,705.899170 624.874756,705.802185 624.159668,705.932190 
	C618.060059,709.593140 611.960449,713.254089 605.945862,716.953247 
	C605.945862,716.953247 605.923401,716.862732 605.215881,717.018799 
	C602.394592,719.439941 599.840393,718.925537 596.748718,717.047180 
	C589.091064,712.394714 581.180969,708.157471 572.958984,703.211609 
	C570.973877,702.138245 568.988770,701.064941 566.491150,699.555908 
	C558.359802,694.931580 550.228516,690.307251 541.709900,685.144104 
	C532.806580,680.096130 523.903320,675.048157 514.552795,669.584900 
	C513.840027,669.224060 513.127319,668.863159 512.427979,668.705933 
	C512.427979,668.705933 512.357117,668.514526 511.929626,668.031555 
	C505.318634,664.299255 498.707642,660.566956 492.071014,656.929321 
	C492.071014,656.929321 492.161987,656.892700 491.756104,656.345886 
	C488.197784,654.493469 484.639465,652.641052 481.068176,650.900513 
	C481.068176,650.900513 481.178040,650.875977 480.887512,650.300598 
	C480.277893,650.127747 479.668274,649.954956 479.042328,649.936157 
	C479.042328,649.936157 479.197052,649.929077 478.992859,649.382385 
M602.856750,667.471436 
	C602.638367,667.664978 602.419922,667.858582 601.522705,668.170532 
	C600.786926,667.930847 600.051086,667.691223 599.315308,667.451538 
	C599.375183,668.006836 599.435059,668.562195 599.494934,669.117493 
	C600.591003,668.746216 601.687073,668.375000 602.856750,667.471436 
M609.000793,681.991089 
	C609.000793,681.991089 608.918152,681.909912 608.342102,682.243530 
	C606.465332,684.738403 604.588562,687.233337 602.351624,690.067444 
	C602.696411,690.181213 603.041199,690.294983 604.055908,690.217957 
	C607.034912,688.473694 610.013977,686.729492 613.650574,684.756775 
	C657.443054,659.491211 701.230408,634.216736 745.029297,608.962402 
	C797.767761,578.553467 850.519714,548.167786 903.252869,517.749634 
	C907.076294,515.544128 910.794189,513.155701 914.561157,510.852295 
	C914.363770,510.369080 914.166382,509.885895 913.969055,509.402679 
	C896.740906,512.772522 879.385071,515.599243 862.308655,519.614502 
	C812.007568,531.442078 765.095825,551.535156 721.618530,579.418274 
	C681.575806,605.098755 646.072571,636.016663 615.426636,673.352844 
	C613.252869,676.210571 611.079041,679.068359 609.000793,681.991089 
M353.773804,828.849792 
	C354.175720,829.237000 354.577637,829.624268 355.219299,830.639038 
	C361.983551,837.163757 368.747803,843.688477 375.896149,850.780029 
	C480.462494,945.851318 637.278809,965.911377 764.538208,894.886902 
	C826.486328,860.313232 872.987549,810.774048 904.027649,746.925110 
	C926.313721,701.083191 937.137634,652.604736 937.122986,600.993347 
	C924.262268,608.427979 912.026306,615.428162 899.910156,622.629944 
	C898.815125,623.280884 898.106262,625.168091 897.872070,626.588989 
	C895.687195,639.842041 894.439880,653.301941 891.429749,666.358032 
	C875.325317,736.210449 838.894653,793.385681 782.140930,837.128845 
	C733.324829,874.754150 677.882690,895.220032 615.513062,897.954468 
	C614.667297,898.114929 613.821472,898.275452 612.090942,898.619080 
	C609.073120,898.683655 606.055298,898.748230 602.549927,898.400269 
	C601.354065,898.536987 600.158203,898.673706 598.068970,898.866272 
	C595.391907,898.759094 592.714905,898.651917 589.444763,898.137634 
	C588.247681,898.140686 587.050598,898.143799 584.947815,898.130676 
	C561.266174,897.247192 538.173523,892.958069 515.489380,886.225098 
	C476.049500,874.518738 440.849670,854.969849 408.960388,828.326660 
	C408.308685,827.878662 407.657013,827.430603 406.678467,826.560791 
	C406.522583,826.475159 406.366669,826.389587 405.898773,825.778076 
	C404.692352,824.654907 403.496185,823.520447 402.277832,822.410339 
	C396.216034,816.887085 390.148376,811.370239 383.907715,805.199646 
	C380.679779,801.412292 377.430206,797.643188 374.227234,793.834900 
	C334.541809,746.649841 311.011963,692.570007 304.998230,631.082275 
	C304.495056,625.937744 303.189026,622.055603 297.914764,620.006531 
	C294.703522,618.758911 291.864014,616.562500 288.840607,614.821716 
	C280.996826,610.305298 273.143738,605.805054 264.414032,600.792969 
	C264.968414,611.042480 265.336731,620.300354 265.996124,629.537415 
	C267.401947,649.230103 270.873718,668.574707 275.953918,687.653198 
	C284.420715,719.449524 297.228394,749.370911 314.564667,777.327332 
	C325.894318,795.597473 338.465393,812.946655 353.606506,828.333801 
	C353.606506,828.333801 353.661713,828.297668 353.773804,828.849792 
M833.092224,357.924408 
	C833.092224,357.924408 833.138245,357.874847 832.826965,357.283478 
	C802.764648,328.910217 768.803040,306.514435 730.617859,290.587097 
	C691.773254,274.384735 651.338928,265.627075 609.234680,265.032806 
	C598.801147,264.885529 588.357056,265.749969 577.914001,265.957581 
	C553.158997,266.449768 529.047119,271.179688 505.574768,278.455292 
	C410.659363,307.875824 341.310181,367.517273 297.176880,456.493866 
	C293.983765,462.931458 291.369354,469.656097 288.216156,476.863831 
	C304.108978,472.651947 318.986420,468.785522 333.796448,464.676331 
	C335.434113,464.221985 337.213226,462.666229 338.042053,461.140656 
	C368.613770,404.871277 412.393951,362.256561 469.776825,333.787262 
	C506.041718,315.795227 544.426331,305.711151 585.546631,304.089172 
	C586.359253,303.959869 587.171814,303.830566 588.899414,303.489471 
	C597.540222,303.597748 606.180969,303.706024 615.552124,304.044037 
	C616.057922,304.008514 616.563782,303.972961 617.974060,303.935547 
	C635.686279,306.489899 653.681458,307.818481 671.057373,311.829620 
	C722.169373,323.628448 766.576538,348.423676 805.316040,384.635925 
	C807.886841,387.055878 810.457581,389.475800 813.646362,392.209534 
	C813.773010,392.514465 813.822571,392.895081 814.037231,393.113617 
	C834.105652,413.547180 850.739319,436.482422 864.218689,461.740143 
	C864.832947,462.891174 866.165649,464.079803 867.393372,464.418365 
	C882.478149,468.578491 897.605835,472.583130 913.419800,476.814606 
	C912.644958,474.639038 912.236694,473.069733 911.550415,471.633240 
	C906.404968,460.863983 901.646301,449.879822 895.935974,439.416290 
	C880.704102,411.505829 862.072571,386.069733 838.904114,363.285614 
	C837.297729,361.812103 835.691406,360.338593 833.904724,358.398651 
	C833.629517,358.218781 833.354248,358.038879 833.092224,357.924408 
M598.965942,690.771240 
	C599.196045,690.749268 599.426147,690.727356 599.656250,690.705383 
	C599.518860,690.393311 599.381470,690.081299 599.016235,689.128357 
	C561.259705,639.515747 515.229004,599.432556 461.473907,567.811218 
	C416.281097,541.226685 313.732239,506.915466 287.043762,510.854279 
	C295.478149,515.718140 303.513672,520.340088 311.538025,524.981445 
	C350.276611,547.388123 389.001984,569.817566 427.751648,592.205078 
	C466.497559,614.590393 505.250305,636.964050 544.032837,659.285889 
	C562.184204,669.733032 580.412720,680.046082 598.965942,690.771240 
M654.547607,579.060974 
	C631.984924,604.781250 614.345276,633.406860 603.107056,665.907471 
	C681.871094,559.012512 787.200195,501.701752 919.981812,495.061462 
	C919.601074,494.789642 919.250305,494.335663 918.843323,494.277954 
	C904.054871,492.181946 889.318909,489.258270 874.454346,488.264404 
	C853.020996,486.831390 831.589844,488.062469 810.359558,491.974701 
	C782.019226,497.197205 755.112915,506.481781 729.692993,520.000000 
	C701.347656,535.074036 676.675537,554.890930 654.547607,579.060974 
M491.904724,531.586853 
	C426.958344,490.579010 356.960052,478.832611 282.238617,494.767181 
	C414.760468,501.751343 520.108643,558.944702 598.886292,665.783752 
	C578.104797,609.432251 542.516724,564.985413 491.904724,531.586853 
z"/>
<path fill="#03AEEC" opacity="1.000000" stroke="none" 
	d="
M616.153320,898.152466 
	C677.882690,895.220032 733.324829,874.754150 782.140930,837.128845 
	C838.894653,793.385681 875.325317,736.210449 891.429749,666.358032 
	C894.439880,653.301941 895.687195,639.842041 897.872070,626.588989 
	C898.106262,625.168091 898.815125,623.280884 899.910156,622.629944 
	C912.026306,615.428162 924.262268,608.427979 937.122986,600.993347 
	C937.137634,652.604736 926.313721,701.083191 904.027649,746.925110 
	C872.987549,810.774048 826.486328,860.313232 764.538208,894.886902 
	C637.278809,965.911377 480.462494,945.851318 376.056305,850.281982 
	C375.809937,846.853394 375.403412,843.922729 375.342834,841.021729 
	C377.158722,840.834106 379.186432,841.149902 379.996674,840.302124 
	C382.718811,837.453857 385.465637,834.446838 387.369812,831.035522 
	C391.924103,822.876648 386.141998,811.051941 376.997406,809.153748 
	C368.680817,807.427429 356.277954,815.132385 353.725311,823.611572 
	C357.646515,824.893860 360.763306,823.961487 363.142242,820.454895 
	C363.966339,819.240234 365.180725,818.269592 366.296906,817.277649 
	C369.682037,814.269226 373.635284,814.212830 377.469574,815.860291 
	C381.292908,817.502991 382.902191,820.696838 383.101837,825.009949 
	C383.330719,829.954346 379.438202,831.825684 376.809540,834.566406 
	C374.902588,836.554626 373.713898,838.316223 374.670227,840.958374 
	C370.208923,836.771484 366.254181,832.439575 361.894958,828.562378 
	C359.486847,826.420715 356.421906,823.578308 353.546478,828.364746 
	C338.465393,812.946655 325.894318,795.597473 314.564667,777.327332 
	C297.228394,749.370911 284.420715,719.449524 275.953918,687.653198 
	C270.873718,668.574707 267.401947,649.230103 265.996124,629.537415 
	C265.336731,620.300354 264.968414,611.042480 264.414032,600.792969 
	C273.143738,605.805054 280.996826,610.305298 288.840607,614.821716 
	C291.864014,616.562500 294.703522,618.758911 297.914764,620.006531 
	C303.189026,622.055603 304.495056,625.937744 304.998230,631.082275 
	C311.011963,692.570007 334.541809,746.649841 374.227234,793.834900 
	C377.430206,797.643188 380.679779,801.412292 383.990356,805.902771 
	C385.292297,808.687012 386.129974,811.163208 387.800690,812.776917 
	C393.346588,818.133850 399.192352,823.180298 405.104675,828.509521 
	C405.623871,827.474243 405.917297,826.889099 406.210754,826.303955 
	C406.366669,826.389587 406.522583,826.475159 406.884033,827.100708 
	C407.779663,828.060303 408.469757,828.479919 409.159851,828.899536 
	C440.849670,854.969849 476.049500,874.518738 515.489380,886.225098 
	C538.173523,892.958069 561.266174,897.247192 585.711792,898.322388 
	C587.663147,898.524231 588.850464,898.534485 590.037842,898.544739 
	C592.714905,898.651917 595.391907,898.759094 598.915771,898.939209 
	C600.854248,898.945618 601.945862,898.879211 603.037476,898.812744 
	C606.055298,898.748230 609.073120,898.683655 612.841919,898.664673 
	C614.446411,898.524414 615.299866,898.338440 616.153320,898.152466 
z"/>
<path fill="#445A6F" opacity="1.000000" stroke="none" 
	d="
M303.289337,593.186951 
	C303.289337,593.186951 303.149628,593.234436 303.054504,592.830933 
	C297.720551,589.002258 292.440704,585.637268 287.272034,582.109375 
	C285.986938,581.232300 285.263763,579.445374 283.931152,578.741516 
	C280.545685,576.953308 275.758881,576.447327 273.739380,573.766174 
	C270.731598,569.772949 267.697052,569.553650 263.697113,570.369812 
	C263.697113,570.369812 263.732941,570.443970 263.725494,570.117920 
	C262.813080,569.525452 261.908112,569.259155 261.003113,568.992859 
	C254.363678,565.278198 247.724228,561.563599 240.801468,557.690491 
	C243.686539,552.702332 246.406403,547.999878 249.733353,543.104858 
	C252.170746,542.090454 254.001053,541.268494 255.760315,540.478455 
	C254.821991,534.100830 259.476868,528.094238 266.363892,526.504944 
	C266.363892,526.504944 266.415710,526.566345 266.328979,526.913940 
	C273.459564,531.792297 279.499084,538.165649 287.812195,540.995911 
	C289.013672,541.404968 290.158020,542.090210 291.205383,542.823853 
	C294.708862,545.277771 297.872986,549.296875 301.680908,550.023376 
	C311.300812,551.858643 317.286591,559.364319 325.397705,563.390564 
	C327.917419,564.641296 330.098511,566.571106 332.611786,567.838745 
	C336.525330,569.812683 340.578979,571.512207 344.594513,573.279663 
	C348.119568,574.831299 351.673828,576.316467 355.215179,577.831055 
	C355.215179,577.831055 355.089355,577.880859 355.198425,578.125854 
	C355.916748,578.554077 356.526001,578.737244 357.135254,578.920410 
	C357.135254,578.920410 357.053436,578.947510 357.164062,579.173767 
	C357.635345,579.501038 357.996002,579.602051 358.356628,579.703064 
	C358.356628,579.703064 358.403748,579.626709 358.233093,579.923645 
	C358.381134,581.088562 358.594025,582.629639 359.038239,582.699402 
	C360.429443,582.918213 361.907837,582.582153 363.352478,582.461060 
	C363.352478,582.461060 363.265564,582.652832 363.295288,582.952393 
	C364.481293,584.840759 365.297119,587.061218 366.856659,587.901917 
	C371.852325,590.594727 377.619995,592.114197 382.068390,595.448914 
	C384.141296,597.002808 384.769592,599.853638 388.144684,598.161316 
	C388.700775,597.882446 389.454712,597.998169 390.117218,597.931519 
	C390.117218,597.931519 390.039581,597.974365 390.061859,598.289673 
	C396.781189,602.363403 403.478241,606.121826 410.175293,609.880249 
	C410.175293,609.880249 410.064240,609.904297 410.155457,610.187927 
	C413.414215,614.233337 417.473450,616.238159 422.357300,616.618408 
	C422.357300,616.618408 422.226166,616.682129 422.263458,616.990845 
	C423.315063,618.688599 424.178070,620.228455 425.378113,621.432373 
	C427.324341,623.384827 429.445679,625.647766 431.989349,622.041382 
	C447.228516,630.753723 462.467682,639.466003 477.973999,648.738281 
	C478.559753,649.508545 478.878418,649.718811 479.197052,649.929077 
	C479.197052,649.929077 479.042328,649.936157 479.183655,650.166870 
	C479.942657,650.557129 480.560333,650.716553 481.178040,650.875977 
	C481.178040,650.875977 481.068176,650.900513 481.157654,651.190796 
	C484.885406,653.284912 488.523712,655.088806 492.161987,656.892700 
	C492.161987,656.892700 492.071014,656.929321 492.074524,657.236816 
	C492.735931,658.212463 493.290466,659.053589 494.069366,659.519592 
	C497.783051,661.741272 502.725006,663.034546 504.994934,666.240601 
	C507.452576,669.711853 509.270020,669.765015 512.357117,668.514526 
	C512.357117,668.514526 512.427979,668.705933 512.356934,668.924438 
	C512.859863,670.476013 513.116455,672.813843 515.000000,670.000183 
	C523.903320,675.048157 532.806580,680.096130 541.895142,685.780457 
	C548.881592,692.800903 557.581421,696.129272 565.421936,700.838013 
	C565.684937,700.995972 566.464722,700.293213 567.003662,699.991638 
	C568.988770,701.064941 570.973877,702.138245 572.933960,703.652466 
	C581.919067,709.546875 590.836060,715.170776 600.069275,720.215820 
	C601.101685,720.779907 603.928650,718.059753 605.923401,716.862671 
	C605.923401,716.862732 605.945862,716.953247 606.291992,716.955566 
	C610.353027,715.314026 614.250183,713.978699 617.723877,711.926392 
	C620.384766,710.354309 622.510803,707.876892 624.874756,705.802185 
	C624.874756,705.802185 624.921692,705.899170 625.256836,705.945557 
	C628.342834,705.389587 631.093628,704.787231 634.076721,704.134033 
	C634.396606,703.502136 634.660278,701.919067 635.526306,701.451355 
	C639.628052,699.236023 644.025879,697.549133 648.035278,695.192566 
	C649.582458,694.283264 650.380554,692.099487 651.519897,690.496338 
	C651.519897,690.496338 651.603577,690.529480 651.989868,690.654663 
	C654.860168,689.101379 657.344299,687.422913 659.828369,685.744507 
	C659.828369,685.744507 659.893066,685.853638 660.189697,685.892456 
	C664.659546,685.068359 669.367493,685.037354 670.521667,679.479004 
	C670.521667,679.479004 670.599365,679.525818 671.002686,679.664307 
	C674.369995,679.802795 677.334106,679.802795 680.779114,679.802795 
	C680.708435,678.856689 680.593445,677.318237 680.537231,676.566345 
	C683.751099,673.686646 686.649902,671.089111 689.548767,668.491577 
	C689.548767,668.491577 689.622070,668.551697 689.998047,668.683472 
	C692.011292,669.423889 693.648499,670.032532 694.932556,670.509949 
	C696.194641,668.473572 697.011169,665.414307 698.513123,665.029297 
	C705.665161,663.196045 710.556702,657.702209 716.813843,654.503540 
	C717.755066,654.022400 718.202881,652.575989 718.878967,651.576172 
	C723.020081,649.088013 727.161255,646.599792 731.763550,644.321350 
	C733.718750,644.122803 735.370667,643.995483 736.680054,643.259094 
	C743.426514,639.465027 750.145752,635.613220 756.737366,631.558594 
	C758.697754,630.352844 760.213745,628.424438 761.933350,626.827148 
	C761.933350,626.827148 761.933533,626.924927 762.269531,626.946045 
	C764.268677,625.809570 765.931946,624.651855 767.595215,623.494141 
	C767.678284,623.653564 767.761414,623.812866 768.106445,623.904175 
	C768.908813,623.885193 769.449341,623.934143 770.381348,623.980225 
	C776.002075,624.202209 777.270935,619.695740 779.665161,616.533813 
	C779.665161,616.533813 779.954895,616.734070 780.181702,616.791870 
	C781.058655,616.801331 781.832764,616.967407 782.340942,616.673462 
	C798.029663,607.600769 813.704468,598.503601 829.330200,589.323181 
	C830.304932,588.750549 830.864319,587.471069 831.616943,586.520386 
	C831.616943,586.520386 831.749268,586.586060 831.993469,586.642334 
	C832.470886,586.397583 832.704102,586.096619 832.937317,585.795715 
	C833.010986,585.451111 833.210449,585.210938 833.961487,585.316162 
	C835.770081,584.533752 837.152771,583.510193 838.535461,582.486572 
	C838.535461,582.486572 838.601685,582.541626 838.974731,582.658691 
	C840.788574,581.699280 842.229431,580.622803 843.670288,579.546326 
	C843.670288,579.546326 843.786865,579.652039 844.006836,579.681519 
	C844.465515,579.425964 844.704163,579.140869 844.942871,578.855835 
	C844.942871,578.855835 844.938110,578.942505 845.235718,578.927368 
	C846.039734,578.540771 846.546143,578.169250 847.418823,577.861694 
	C855.402161,574.349548 863.142700,571.009460 870.589722,567.108826 
	C875.033264,564.781311 878.713623,560.770081 883.310669,559.040283 
	C886.479004,557.848145 887.864380,556.344360 888.704529,553.561279 
	C888.704529,553.561279 888.857056,553.625122 889.160767,553.754272 
	C889.795776,553.896057 890.197693,554.038757 890.448303,553.902710 
	C901.751648,547.767761 913.056641,541.635071 924.287781,535.369995 
	C924.828064,535.068604 924.703125,533.574951 924.888000,532.636475 
	C930.117859,529.477722 935.347717,526.318909 941.030151,522.886719 
	C947.764282,534.520813 954.378906,545.948486 961.131104,557.613892 
	C929.725037,575.738037 898.522034,593.745056 866.688843,611.691040 
	C861.822754,614.244751 857.586853,616.859497 853.350891,619.474182 
	C853.350891,619.474182 853.020142,619.293152 852.819214,619.237915 
	C847.734497,621.769775 842.850586,624.356812 837.563721,626.962585 
	C834.340271,627.977234 830.317505,628.156433 828.963989,630.148804 
	C826.564819,633.680603 823.791443,634.862244 819.944336,634.870605 
	C819.809631,634.695435 819.731995,634.647461 819.654419,634.599426 
	C819.768921,634.733398 819.883362,634.867371 819.995728,635.372925 
	C819.036377,636.653503 818.125671,637.618286 817.113220,638.460938 
	C814.256653,640.838196 811.358276,643.165283 808.476379,645.512146 
	C808.476379,645.512146 808.378540,645.499695 808.023010,645.330811 
	C805.885132,644.271912 803.988281,639.455322 802.281860,644.616699 
	C801.165161,647.994446 799.229553,649.203430 796.394165,650.520264 
	C792.832947,652.174316 788.529358,652.578247 786.048340,656.410950 
	C785.473938,657.298401 783.449890,657.201843 782.131897,657.668518 
	C781.122437,658.025940 780.046753,658.395630 779.226074,659.044922 
	C777.621033,660.314941 776.149902,661.759338 774.667603,663.177795 
	C773.202576,664.579712 771.792114,666.038696 770.357727,667.472656 
	C770.357727,667.472656 770.321533,667.458435 769.946777,667.296631 
	C767.286804,666.376465 765.650085,666.663452 763.549805,668.489441 
	C760.148499,671.446594 755.973694,673.522888 752.084534,675.904480 
	C751.071838,676.524597 749.874329,676.834534 748.820496,677.397156 
	C745.987122,678.909912 743.340637,681.046082 740.328369,681.874695 
	C737.223022,682.728882 735.499451,683.767517 736.103882,687.163696 
	C736.103882,687.163696 736.067627,687.062195 735.718140,687.048218 
	C729.105103,689.563782 721.162903,689.346924 718.311951,697.459778 
	C718.311951,697.459778 718.168457,697.299011 717.866516,697.220337 
	C711.127136,696.995605 707.486633,702.509583 702.226379,704.834900 
	C696.877075,707.199524 692.211853,711.070068 686.963318,713.718933 
	C683.493774,715.469910 678.696960,714.625549 676.845520,719.464111 
	C676.545288,720.248718 674.880188,720.455994 673.924133,721.054993 
	C670.703674,723.072327 665.803894,723.020142 665.093445,728.157349 
	C665.093445,728.157349 665.067810,728.059692 664.729736,728.048828 
	C662.740356,729.194275 661.089050,730.350464 659.437744,731.506714 
	C659.437744,731.506714 659.354309,731.465149 659.024780,731.321167 
	C656.141663,730.774414 653.588196,730.371643 649.943359,729.796753 
	C651.081848,732.188049 651.866699,733.836548 652.651550,735.485107 
	C652.651550,735.485107 652.474060,735.510498 652.111877,735.419312 
	C651.528809,735.645752 651.307922,735.963318 651.087036,736.280884 
	C635.065063,745.645508 619.079895,755.074585 602.949768,764.248901 
	C601.695862,764.962097 599.132935,764.400085 597.678040,763.562744 
	C589.648499,758.941650 581.861267,753.899719 573.830078,749.281738 
	C550.937805,736.118530 527.967896,723.090393 504.896362,709.643250 
	C504.764221,709.277405 504.998779,709.002441 505.396240,708.992798 
	C512.267456,708.733643 516.232483,705.044739 518.267273,699.288269 
	C519.564026,695.619690 519.928467,691.736084 516.797668,688.084045 
	C515.374573,689.875549 514.328247,691.754944 514.014221,693.749634 
	C513.013855,700.103699 508.104767,704.901733 502.642639,703.852722 
	C495.986816,702.574524 492.722931,699.542725 494.262787,691.333252 
	C494.738922,688.794739 497.684082,686.120850 500.180328,684.751648 
	C502.128662,683.682983 505.131958,684.537720 507.350494,684.537720 
	C504.253906,688.238708 501.793915,691.545471 498.947906,694.477539 
	C496.085693,697.426208 496.846680,699.225708 499.280029,700.485168 
	C504.897705,694.947876 510.169342,689.751648 515.687439,684.312439 
	C512.148438,679.969299 507.559906,677.262573 501.319183,678.386414 
	C495.269135,679.475891 491.284698,683.095398 488.925751,688.700562 
	C486.732758,693.911255 488.127991,698.220764 491.984650,702.018555 
	C491.954102,702.053589 491.893646,702.124084 491.893646,702.124084 
	C485.645935,698.654297 479.398224,695.184448 473.172058,691.248169 
	C472.014374,690.311340 470.835175,689.840942 469.655975,689.370483 
	C469.655975,689.370483 469.784912,689.294800 469.740173,688.980713 
	C468.409058,688.149475 467.122650,687.632385 465.836273,687.115295 
	C465.836273,687.115295 465.929199,687.083374 465.864746,686.804382 
	C465.229553,684.614441 464.777252,683.304260 462.127380,682.608154 
	C459.096619,681.811951 456.596954,679.015564 453.846252,677.117615 
	C453.093536,676.598206 452.296387,676.124756 451.471100,675.731995 
	C447.957764,674.059814 444.468964,672.324951 440.888245,670.808899 
	C437.878387,669.534729 434.753754,668.531494 431.679962,667.408325 
	C431.679962,667.408325 431.770569,667.474487 431.728333,667.101074 
	C424.454346,662.156982 417.222565,657.586365 409.639954,652.966675 
	C406.456360,651.306091 402.389557,650.362976 401.072113,647.930725 
	C398.947906,644.008911 396.804199,644.201721 393.641876,645.513733 
	C393.641876,645.513733 393.826752,645.127808 393.751526,644.936279 
	C389.963379,641.265869 386.250427,637.786987 382.432770,634.210022 
	C382.427124,634.222229 381.992554,635.166870 381.773682,635.642700 
	C379.299530,635.237610 376.961365,634.854797 374.623199,634.471924 
	C374.623199,634.471924 375.003479,634.326477 374.841644,634.025391 
	C373.287628,632.469482 372.054749,630.942993 370.471222,630.014465 
	C366.800293,627.862244 362.918884,626.072388 359.201172,623.995361 
	C356.262543,622.353577 353.496277,620.402527 350.552399,618.771179 
	C347.122772,616.870789 342.251343,616.198364 344.697510,609.820740 
	C344.190155,609.707153 343.682800,609.593628 343.175446,609.480042 
	C341.782349,610.989807 340.389252,612.499573 338.996155,614.009338 
	C327.714050,607.576355 316.431946,601.143372 305.152954,594.220642 
	C304.533813,593.549561 303.911560,593.368225 303.289337,593.186951 
M686.076843,686.539795 
	C686.369385,686.912903 686.661926,687.286072 686.954468,687.659180 
	C687.125793,687.494751 687.297119,687.330322 687.468445,687.165894 
	C686.986389,686.772705 686.504395,686.379517 685.773438,685.536133 
	C685.395752,685.254883 685.018005,684.973633 684.640320,684.692383 
	C684.519348,684.920593 684.398438,685.148743 684.277466,685.376953 
	C684.841736,685.595642 685.405945,685.814392 686.076843,686.539795 
M690.449036,690.225403 
	C690.068848,690.151367 689.688660,690.077271 689.308472,690.003174 
	C689.478516,690.521240 689.648621,691.039368 689.818726,691.557434 
	C690.099487,691.276489 690.380310,690.995605 690.449036,690.225403 
M355.517517,583.430786 
	C355.517517,583.430786 355.567352,583.521362 355.517517,583.430786 
z"/>
<path fill="#03AEEC" opacity="1.000000" stroke="none" 
	d="
M804.982361,384.066376 
	C766.576538,348.423676 722.169373,323.628448 671.057373,311.829620 
	C653.681458,307.818481 635.686279,306.489899 617.332031,303.773468 
	C616.067322,303.679047 615.444519,303.746674 614.821777,303.814301 
	C606.180969,303.706024 597.540222,303.597748 588.150391,303.444153 
	C586.577698,303.578522 585.753967,303.758240 584.930237,303.937958 
	C544.426331,305.711151 506.041718,315.795227 469.776825,333.787262 
	C412.393951,362.256561 368.613770,404.871277 338.042053,461.140656 
	C337.213226,462.666229 335.434113,464.221985 333.796448,464.676331 
	C318.986420,468.785522 304.108978,472.651947 288.216156,476.863831 
	C291.369354,469.656097 293.983765,462.931458 297.176880,456.493866 
	C341.310181,367.517273 410.659363,307.875824 505.574768,278.455292 
	C529.047119,271.179688 553.158997,266.449768 577.914001,265.957581 
	C588.357056,265.749969 598.801147,264.885529 609.234680,265.032806 
	C651.338928,265.627075 691.773254,274.384735 730.617859,290.587097 
	C768.803040,306.514435 802.764648,328.910217 832.550781,357.621613 
	C830.815857,357.685120 829.359192,357.398743 827.897949,357.137787 
	C819.044922,355.556610 810.284607,363.063110 809.927979,371.979675 
	C809.487976,382.982330 818.788879,389.772186 829.603210,387.877045 
	C838.777832,386.269196 844.174866,374.322113 838.556396,364.958771 
	C837.112976,368.292572 835.256958,370.697510 835.182861,373.156128 
	C835.043762,377.769653 832.711243,380.352386 828.919250,381.780823 
	C824.571594,383.418610 819.131958,381.773621 817.287354,378.343903 
	C815.174805,374.415863 815.200989,370.377686 817.935608,366.602539 
	C820.787659,362.665131 824.468689,362.186310 829.970703,364.077972 
	C826.644104,367.564636 823.965637,370.590790 821.049133,373.366913 
	C818.143921,376.132294 818.691406,378.067047 822.146667,379.950806 
	C827.878662,374.540985 833.521912,369.214905 839.165161,363.888824 
	C862.072571,386.069733 880.704102,411.505829 895.935974,439.416290 
	C901.646301,449.879822 906.404968,460.863983 911.550415,471.633240 
	C912.236694,473.069733 912.644958,474.639038 913.419800,476.814606 
	C897.605835,472.583130 882.478149,468.578491 867.393372,464.418365 
	C866.165649,464.079803 864.832947,462.891174 864.218689,461.740143 
	C850.739319,436.482422 834.105652,413.547180 814.037231,393.113617 
	C813.822571,392.895081 813.773010,392.514465 813.309143,391.645142 
	C812.914307,385.112152 810.059021,382.605347 804.982361,384.066376 
z"/>
<path fill="#9CAFB6" opacity="1.000000" stroke="none" 
	d="
M598.606262,690.419861 
	C580.412720,680.046082 562.184204,669.733032 544.032837,659.285889 
	C505.250305,636.964050 466.497559,614.590393 427.751648,592.205078 
	C389.001984,569.817566 350.276611,547.388123 311.538025,524.981445 
	C303.513672,520.340088 295.478149,515.718140 287.043762,510.854279 
	C313.732239,506.915466 416.281097,541.226685 461.473907,567.811218 
	C515.229004,599.432556 561.259705,639.515747 598.968018,689.608765 
	C598.919739,690.089233 598.606262,690.419861 598.606262,690.419861 
z"/>
<path fill="#9CAFB6" opacity="1.000000" stroke="none" 
	d="
M615.988037,672.994446 
	C646.072571,636.016663 681.575806,605.098755 721.618530,579.418274 
	C765.095825,551.535156 812.007568,531.442078 862.308655,519.614502 
	C879.385071,515.599243 896.740906,512.772522 913.969055,509.402679 
	C914.166382,509.885895 914.363770,510.369080 914.561157,510.852295 
	C910.794189,513.155701 907.076294,515.544128 903.252869,517.749634 
	C850.519714,548.167786 797.767761,578.553467 745.029297,608.962402 
	C701.230408,634.216736 657.443054,659.491211 613.095337,684.605103 
	C611.332825,683.605591 610.125488,682.757751 608.918152,681.909912 
	C608.918152,681.909912 609.000793,681.991089 609.318359,681.976807 
	C613.152893,679.964417 618.377441,679.175964 615.988037,672.994446 
z"/>
<path fill="#9CAFB6" opacity="1.000000" stroke="none" 
	d="
M654.783264,578.794189 
	C676.675537,554.890930 701.347656,535.074036 729.692993,520.000000 
	C755.112915,506.481781 782.019226,497.197205 810.359558,491.974701 
	C831.589844,488.062469 853.020996,486.831390 874.454346,488.264404 
	C889.318909,489.258270 904.054871,492.181946 918.843323,494.277954 
	C919.250305,494.335663 919.601074,494.789642 919.981812,495.061462 
	C787.200195,501.701752 681.871094,559.012512 603.107056,665.907471 
	C614.345276,633.406860 631.984924,604.781250 654.783264,578.794189 
z"/>
<path fill="#9CAFB6" opacity="1.000000" stroke="none" 
	d="
M492.192444,531.805176 
	C542.516724,564.985413 578.104797,609.432251 598.886292,665.783752 
	C520.108643,558.944702 414.760468,501.751343 282.238617,494.767181 
	C356.960052,478.832611 426.958344,490.579010 492.192444,531.805176 
z"/>
<path fill="#27BBF0" opacity="1.000000" stroke="none" 
	d="
M839.034668,363.587219 
	C833.521912,369.214905 827.878662,374.540985 822.146667,379.950806 
	C818.691406,378.067047 818.143921,376.132294 821.049133,373.366913 
	C823.965637,370.590790 826.644104,367.564636 829.970703,364.077972 
	C824.468689,362.186310 820.787659,362.665131 817.935608,366.602539 
	C815.200989,370.377686 815.174805,374.415863 817.287354,378.343903 
	C819.131958,381.773621 824.571594,383.418610 828.919250,381.780823 
	C832.711243,380.352386 835.043762,377.769653 835.182861,373.156128 
	C835.256958,370.697510 837.112976,368.292572 838.556396,364.958771 
	C844.174866,374.322113 838.777832,386.269196 829.603210,387.877045 
	C818.788879,389.772186 809.487976,382.982330 809.927979,371.979675 
	C810.284607,363.063110 819.044922,355.556610 827.897949,357.137787 
	C829.359192,357.398743 830.815857,357.685120 832.706421,357.917297 
	C833.138245,357.874847 833.092224,357.924408 833.073059,358.145752 
	C833.397583,358.533081 833.741333,358.699066 834.085022,358.865051 
	C835.691406,360.338593 837.297729,361.812103 839.034668,363.587219 
z"/>
<path fill="#344C60" opacity="1.000000" stroke="none" 
	d="
M355.012543,577.556274 
	C351.673828,576.316467 348.119568,574.831299 344.594513,573.279663 
	C340.578979,571.512207 336.525330,569.812683 332.611786,567.838745 
	C330.098511,566.571106 327.917419,564.641296 325.397705,563.390564 
	C317.286591,559.364319 311.300812,551.858643 301.680908,550.023376 
	C297.872986,549.296875 294.708862,545.277771 291.205383,542.823853 
	C290.158020,542.090210 289.013672,541.404968 287.812195,540.995911 
	C279.499084,538.165649 273.459564,531.792297 266.364807,526.895874 
	C289.474609,539.721558 312.463837,552.909607 335.447693,566.106873 
	C341.909912,569.817566 348.356293,573.555786 355.012543,577.556274 
z"/>
<path fill="#25BAEF" opacity="1.000000" stroke="none" 
	d="
M374.996857,840.992126 
	C375.403412,843.922729 375.809937,846.853394 375.864258,849.998596 
	C368.747803,843.688477 361.983551,837.163757 355.337555,830.137451 
	C354.857758,829.189819 354.259735,828.743713 353.661713,828.297668 
	C353.661713,828.297668 353.606506,828.333801 353.576477,828.349243 
	C356.421906,823.578308 359.486847,826.420715 361.894958,828.562378 
	C366.254181,832.439575 370.208923,836.771484 374.666260,840.956787 
	C375.000000,841.000000 374.996857,840.992126 374.996857,840.992126 
z"/>
<path fill="#344C60" opacity="1.000000" stroke="none" 
	d="
M665.440674,728.080872 
	C665.803894,723.020142 670.703674,723.072327 673.924133,721.054993 
	C674.880188,720.455994 676.545288,720.248718 676.845520,719.464111 
	C678.696960,714.625549 683.493774,715.469910 686.963318,713.718933 
	C692.211853,711.070068 696.877075,707.199524 702.226379,704.834900 
	C707.486633,702.509583 711.127136,696.995605 717.962646,697.268982 
	C700.836426,707.598999 683.312134,717.801697 665.440674,728.080872 
z"/>
<path fill="#344C60" opacity="1.000000" stroke="none" 
	d="
M831.282654,586.631836 
	C830.864319,587.471069 830.304932,588.750549 829.330200,589.323181 
	C813.704468,598.503601 798.029663,607.600769 782.340942,616.673462 
	C781.832764,616.967407 781.058655,616.801331 780.023682,616.714233 
	C796.741943,606.633545 813.845154,596.688354 831.282654,586.631836 
z"/>
<path fill="#344C60" opacity="1.000000" stroke="none" 
	d="
M770.693726,667.365967 
	C771.792114,666.038696 773.202576,664.579712 774.667603,663.177795 
	C776.149902,661.759338 777.621033,660.314941 779.226074,659.044922 
	C780.046753,658.395630 781.122437,658.025940 782.131897,657.668518 
	C783.449890,657.201843 785.473938,657.298401 786.048340,656.410950 
	C788.529358,652.578247 792.832947,652.174316 796.394165,650.520264 
	C799.229553,649.203430 801.165161,647.994446 802.281860,644.616699 
	C803.988281,639.455322 805.885132,644.271912 808.000671,645.374817 
	C795.899170,652.811584 783.464478,660.035400 770.693726,667.365967 
M803.478577,646.581421 
	C803.478577,646.581421 803.404846,646.462891 803.478577,646.581421 
z"/>
<path fill="#32495D" opacity="1.000000" stroke="none" 
	d="
M888.363525,553.664978 
	C887.864380,556.344360 886.479004,557.848145 883.310669,559.040283 
	C878.713623,560.770081 875.033264,564.781311 870.589722,567.108826 
	C863.142700,571.009460 855.402161,574.349548 847.407349,577.820679 
	C847.029480,577.715759 847.021851,577.627258 847.021851,577.627258 
	C860.688782,569.674438 874.355713,561.721558 888.363525,553.664978 
z"/>
<path fill="#32495D" opacity="1.000000" stroke="none" 
	d="
M339.257324,614.220093 
	C340.389252,612.499573 341.782349,610.989807 343.175446,609.480042 
	C343.682800,609.593628 344.190155,609.707153 344.697510,609.820740 
	C342.251343,616.198364 347.122772,616.870789 350.552399,618.771179 
	C353.496277,620.402527 356.262543,622.353577 359.201172,623.995361 
	C362.918884,626.072388 366.800293,627.862244 370.471222,630.014465 
	C372.054749,630.942993 373.287628,632.469482 374.652100,634.106934 
	C362.922394,627.803345 351.220428,621.117126 339.257324,614.220093 
z"/>
<path fill="#32495D" opacity="1.000000" stroke="none" 
	d="
M263.893585,570.641724 
	C267.697052,569.553650 270.731598,569.772949 273.739380,573.766174 
	C275.758881,576.447327 280.545685,576.953308 283.931152,578.741516 
	C285.263763,579.445374 285.986938,581.232300 287.272034,582.109375 
	C292.440704,585.637268 297.720551,589.002258 302.994812,592.787598 
	C290.050201,585.736328 277.070129,578.324951 263.893585,570.641724 
z"/>
<path fill="#344C60" opacity="1.000000" stroke="none" 
	d="
M736.450806,687.078613 
	C735.499451,683.767517 737.223022,682.728882 740.328369,681.874695 
	C743.340637,681.046082 745.987122,678.909912 748.820496,677.397156 
	C749.874329,676.834534 751.071838,676.524597 752.084534,675.904480 
	C755.973694,673.522888 760.148499,671.446594 763.549805,668.489441 
	C765.650085,666.663452 767.286804,666.376465 769.943848,667.277466 
	C759.143066,673.944519 747.970337,680.468994 736.450806,687.078613 
z"/>
<path fill="#33BDF0" opacity="1.000000" stroke="none" 
	d="
M406.054749,826.041016 
	C405.917297,826.889099 405.623871,827.474243 405.104675,828.509521 
	C399.192352,823.180298 393.346588,818.133850 387.800690,812.776917 
	C386.129974,811.163208 385.292297,808.687012 384.077881,806.228516 
	C390.148376,811.370239 396.216034,816.887085 402.277832,822.410339 
	C403.496185,823.520447 404.692352,824.654907 406.054749,826.041016 
z"/>
<path fill="#344C60" opacity="1.000000" stroke="none" 
	d="
M431.884125,667.669189 
	C434.753754,668.531494 437.878387,669.534729 440.888245,670.808899 
	C444.468964,672.324951 447.957764,674.059814 451.471100,675.731995 
	C452.296387,676.124756 453.093536,676.598206 453.846252,677.117615 
	C456.596954,679.015564 459.096619,681.811951 462.127380,682.608154 
	C464.777252,683.304260 465.229553,684.614441 465.863770,686.853516 
	C454.647614,680.764465 443.367950,674.347290 431.884125,667.669189 
z"/>
<path fill="#32495D" opacity="1.000000" stroke="none" 
	d="
M924.541016,532.745605 
	C924.703125,533.574951 924.828064,535.068604 924.287781,535.369995 
	C913.056641,541.635071 901.751648,547.767761 890.448303,553.902710 
	C890.197693,554.038757 889.795776,553.896057 889.078369,553.760925 
	C900.526184,546.710510 912.360168,539.782593 924.541016,532.745605 
z"/>
<path fill="#344C60" opacity="1.000000" stroke="none" 
	d="
M718.529419,651.687866 
	C718.202881,652.575989 717.755066,654.022400 716.813843,654.503540 
	C710.556702,657.702209 705.665161,663.196045 698.513123,665.029297 
	C697.011169,665.414307 696.194641,668.473572 694.932556,670.509949 
	C693.648499,670.032532 692.011292,669.423889 690.007812,668.637085 
	C699.154297,662.905762 708.667114,657.352661 718.529419,651.687866 
z"/>
<path fill="#344C60" opacity="1.000000" stroke="none" 
	d="
M808.796387,645.384277 
	C811.358276,643.165283 814.256653,640.838196 817.113220,638.460938 
	C818.125671,637.618286 819.036377,636.653503 819.996765,635.372192 
	C820.000000,635.000000 820.001404,634.997803 820.001404,634.997803 
	C823.791443,634.862244 826.564819,633.680603 828.963989,630.148804 
	C830.317505,628.156433 834.340271,627.977234 837.596436,627.298340 
	C838.058228,627.838501 838.084106,628.061523 838.110046,628.284668 
	C828.445496,633.941895 818.780945,639.599121 808.796387,645.384277 
z"/>
<path fill="#32495D" opacity="1.000000" stroke="none" 
	d="
M761.582520,626.909424 
	C760.213745,628.424438 758.697754,630.352844 756.737366,631.558594 
	C750.145752,635.613220 743.426514,639.465027 736.680054,643.259094 
	C735.370667,643.995483 733.718750,644.122803 732.109009,644.257812 
	C741.739319,638.320251 751.485535,632.655945 761.582520,626.909424 
z"/>
<path fill="#344C60" opacity="1.000000" stroke="none" 
	d="
M266.152313,526.267212 
	C259.476868,528.094238 254.821991,534.100830 255.760315,540.478455 
	C254.001053,541.268494 252.170746,542.090454 249.995300,542.902466 
	C250.154190,541.854187 250.596970,540.780396 251.172424,539.783203 
	C254.312119,534.342712 257.484467,528.921021 260.885590,523.080627 
	C262.645325,524.107178 264.293030,525.068298 266.152313,526.267212 
z"/>
<path fill="#32495D" opacity="1.000000" stroke="none" 
	d="
M605.569641,716.940735 
	C603.928650,718.059753 601.101685,720.779907 600.069275,720.215820 
	C590.836060,715.170776 581.919067,709.546875 573.140625,703.923401 
	C581.180969,708.157471 589.091064,712.394714 596.748718,717.047180 
	C599.840393,718.925537 602.394592,719.439941 605.569641,716.940735 
z"/>
<path fill="#32495D" opacity="1.000000" stroke="none" 
	d="
M389.897461,597.671021 
	C389.454712,597.998169 388.700775,597.882446 388.144684,598.161316 
	C384.769592,599.853638 384.141296,597.002808 382.068390,595.448914 
	C377.619995,592.114197 371.852325,590.594727 366.856659,587.901917 
	C365.297119,587.061218 364.481293,584.840759 363.370178,582.878418 
	C372.169495,587.473450 380.923584,592.442017 389.897461,597.671021 
z"/>
<path fill="#32495D" opacity="1.000000" stroke="none" 
	d="
M651.198975,690.622375 
	C650.380554,692.099487 649.582458,694.283264 648.035278,695.192566 
	C644.025879,697.549133 639.628052,699.236023 635.526306,701.451355 
	C634.660278,701.919067 634.396606,703.502136 634.076721,704.134033 
	C631.093628,704.787231 628.342834,705.389587 625.205261,705.929932 
	C633.505005,700.828125 642.191467,695.788269 651.198975,690.622375 
z"/>
<path fill="#344C60" opacity="1.000000" stroke="none" 
	d="
M689.224121,668.614380 
	C686.649902,671.089111 683.751099,673.686646 680.537231,676.566345 
	C680.593445,677.318237 680.708435,678.856689 680.779114,679.802795 
	C677.334106,679.802795 674.369995,679.802795 671.019958,679.622375 
	C676.722473,675.873718 682.810974,672.305481 689.224121,668.614380 
z"/>
<path fill="#32495D" opacity="1.000000" stroke="none" 
	d="
M566.747437,699.773804 
	C566.464722,700.293213 565.684937,700.995972 565.421936,700.838013 
	C557.581421,696.129272 548.881592,692.800903 542.088806,686.049866 
	C550.228516,690.307251 558.359802,694.931580 566.747437,699.773804 
z"/>
<path fill="#32495D" opacity="1.000000" stroke="none" 
	d="
M374.826477,634.725952 
	C376.961365,634.854797 379.299530,635.237610 381.773682,635.642700 
	C381.992554,635.166870 382.427124,634.222229 382.432770,634.210022 
	C386.250427,637.786987 389.963379,641.265869 393.639252,645.118408 
	C387.411377,641.988037 381.220581,638.484009 374.826477,634.725952 
z"/>
<path fill="#344C60" opacity="1.000000" stroke="none" 
	d="
M409.990814,653.015686 
	C417.222565,657.586365 424.454346,662.156982 431.672333,667.097900 
	C424.133850,663.223755 416.609131,658.979248 409.155304,654.320435 
	C409.481049,653.609314 409.735931,653.312500 409.990814,653.015686 
z"/>
<path fill="#32495D" opacity="1.000000" stroke="none" 
	d="
M512.143372,668.273071 
	C509.270020,669.765015 507.452576,669.711853 504.994934,666.240601 
	C502.725006,663.034546 497.783051,661.741272 494.069366,659.519592 
	C493.290466,659.053589 492.735931,658.212463 492.087341,657.189453 
	C498.707642,660.566956 505.318634,664.299255 512.143372,668.273071 
z"/>
<path fill="#344C60" opacity="1.000000" stroke="none" 
	d="
M718.658264,697.364624 
	C721.162903,689.346924 729.105103,689.563782 735.765808,687.073425 
	C730.443481,690.498230 724.723999,693.883789 718.658264,697.364624 
z"/>
<path fill="#32495D" opacity="1.000000" stroke="none" 
	d="
M410.019043,609.578247 
	C403.478241,606.121826 396.781189,602.363403 390.071655,598.246460 
	C396.660370,601.684021 403.261566,605.480164 410.019043,609.578247 
z"/>
<path fill="#32495D" opacity="1.000000" stroke="none" 
	d="
M624.517212,705.867188 
	C622.510803,707.876892 620.384766,710.354309 617.723877,711.926392 
	C614.250183,713.978699 610.353027,715.314026 606.249390,716.936462 
	C611.960449,713.254089 618.060059,709.593140 624.517212,705.867188 
z"/>
<path fill="#32495D" opacity="1.000000" stroke="none" 
	d="
M409.639954,652.966675 
	C409.735931,653.312500 409.481049,653.609314 408.957031,654.033325 
	C403.816193,651.435120 398.944519,648.709778 393.857361,645.749023 
	C396.804199,644.201721 398.947906,644.008911 401.072113,647.930725 
	C402.389557,650.362976 406.456360,651.306091 409.639954,652.966675 
z"/>
<path fill="#33BDF0" opacity="1.000000" stroke="none" 
	d="
M805.149170,384.351135 
	C810.059021,382.605347 812.914307,385.112152 813.000122,391.488220 
	C810.457581,389.475800 807.886841,387.055878 805.149170,384.351135 
z"/>
<path fill="#9CAFB6" opacity="1.000000" stroke="none" 
	d="
M608.630127,682.076721 
	C610.125488,682.757751 611.332825,683.605591 612.766602,684.719360 
	C610.013977,686.729492 607.034912,688.473694 603.554810,690.140869 
	C603.053650,690.063782 602.711792,689.728271 602.711792,689.728271 
	C604.588562,687.233337 606.465332,684.738403 608.630127,682.076721 
z"/>
<path fill="#344C60" opacity="1.000000" stroke="none" 
	d="
M779.323975,616.632141 
	C777.270935,619.695740 776.002075,624.202209 770.239075,623.737915 
	C769.392273,623.298279 769.079224,623.098145 768.766174,622.898010 
	C772.171753,620.842163 775.577271,618.786316 779.323975,616.632141 
z"/>
<path fill="#32495D" opacity="1.000000" stroke="none" 
	d="
M838.463867,628.199951 
	C838.084106,628.061523 838.058228,627.838501 837.999512,627.279663 
	C842.850586,624.356812 847.734497,621.769775 852.994507,619.307373 
	C848.519653,622.326477 843.668640,625.220886 838.463867,628.199951 
z"/>
<path fill="#32495D" opacity="1.000000" stroke="none" 
	d="
M431.730591,621.822510 
	C429.445679,625.647766 427.324341,623.384827 425.378113,621.432373 
	C424.178070,620.228455 423.315063,618.688599 422.292297,616.923889 
	C425.346527,618.233337 428.409180,619.918457 431.730591,621.822510 
z"/>
<path fill="#344C60" opacity="1.000000" stroke="none" 
	d="
M652.947632,735.356384 
	C651.866699,733.836548 651.081848,732.188049 649.943359,729.796753 
	C653.588196,730.371643 656.141663,730.774414 659.022339,731.367676 
	C657.314209,732.781372 655.278931,734.004517 652.947632,735.356384 
z"/>
<path fill="#32495D" opacity="1.000000" stroke="none" 
	d="
M853.691772,619.369507 
	C857.586853,616.859497 861.822754,614.244751 866.329468,611.745850 
	C862.411072,614.329407 858.221863,616.797119 853.691772,619.369507 
z"/>
<path fill="#9CAFB6" opacity="1.000000" stroke="none" 
	d="
M615.707336,673.173645 
	C618.377441,679.175964 613.152893,679.964417 609.270630,681.944275 
	C611.079041,679.068359 613.252869,676.210571 615.707336,673.173645 
z"/>
<path fill="#32495D" opacity="1.000000" stroke="none" 
	d="
M422.162231,616.353516 
	C417.473450,616.238159 413.414215,614.233337 410.161377,610.131409 
	C414.039734,611.890381 418.003418,613.989441 422.162231,616.353516 
z"/>
<path fill="#344C60" opacity="1.000000" stroke="none" 
	d="
M670.201355,679.600037 
	C669.367493,685.037354 664.659546,685.068359 660.130005,685.871094 
	C663.142700,683.781006 666.511841,681.751038 670.201355,679.600037 
z"/>
<path fill="#32495D" opacity="1.000000" stroke="none" 
	d="
M491.959045,656.619263 
	C488.523712,655.088806 484.885406,653.284912 481.164124,651.134888 
	C484.639465,652.641052 488.197784,654.493469 491.959045,656.619263 
z"/>
<path fill="#32495D" opacity="1.000000" stroke="none" 
	d="
M659.484131,685.829712 
	C657.344299,687.422913 654.860168,689.101379 652.013916,690.616699 
	C654.147827,688.940674 656.643921,687.427795 659.484131,685.829712 
z"/>
<path fill="#32495D" opacity="1.000000" stroke="none" 
	d="
M363.141113,582.235596 
	C361.907837,582.582153 360.429443,582.918213 359.038239,582.699402 
	C358.594025,582.629639 358.381134,581.088562 358.277863,579.925903 
	C359.972137,580.424194 361.450928,581.217224 363.141113,582.235596 
z"/>
<path fill="#445A6F" opacity="1.000000" stroke="none" 
	d="
M499.427032,706.573975 
	C497.044189,705.274170 494.661346,703.974426 492.086060,702.399353 
	C491.893646,702.124084 491.954102,702.053589 492.353882,702.025635 
	C495.167358,703.334351 497.581055,704.670959 499.847473,706.143799 
	C499.700226,706.280090 499.427032,706.573975 499.427032,706.573975 
z"/>
<path fill="#32495D" opacity="1.000000" stroke="none" 
	d="
M767.275818,623.596619 
	C765.931946,624.651855 764.268677,625.809570 762.223083,626.930664 
	C763.545959,625.829102 765.251160,624.764099 767.275818,623.596619 
z"/>
<path fill="#344C60" opacity="1.000000" stroke="none" 
	d="
M659.750000,731.393066 
	C661.089050,730.350464 662.740356,729.194275 664.774536,728.072266 
	C663.459045,729.164124 661.760681,730.221802 659.750000,731.393066 
z"/>
<path fill="#445A6F" opacity="1.000000" stroke="none" 
	d="
M504.646729,709.414795 
	C502.982269,708.712769 501.435272,707.873352 499.657654,706.803955 
	C499.427032,706.573975 499.700226,706.280090 500.189941,706.166199 
	C502.119385,707.035706 503.559082,708.019104 504.998779,709.002441 
	C504.998779,709.002441 504.764221,709.277405 504.646729,709.414795 
z"/>
<path fill="#344C60" opacity="1.000000" stroke="none" 
	d="
M838.233887,582.597168 
	C837.152771,583.510193 835.770081,584.533752 834.203003,585.299438 
	C835.323120,584.263550 836.627747,583.485596 838.233887,582.597168 
z"/>
<path fill="#344C60" opacity="1.000000" stroke="none" 
	d="
M843.352539,579.646912 
	C842.229431,580.622803 840.788574,581.699280 838.990967,582.618835 
	C840.101074,581.557129 841.567871,580.652344 843.352539,579.646912 
z"/>
<path fill="#9CAFB6" opacity="1.000000" stroke="none" 
	d="
M602.783142,668.003784 
	C601.687073,668.375000 600.591003,668.746216 599.494934,669.117493 
	C599.435059,668.562195 599.375183,668.006836 599.315308,667.451538 
	C600.051086,667.691223 600.786926,667.930847 602.006653,668.093994 
	C602.490601,668.017456 602.783142,668.003784 602.783142,668.003784 
z"/>
<path fill="#344C60" opacity="1.000000" stroke="none" 
	d="
M466.027527,687.386230 
	C467.122650,687.632385 468.409058,688.149475 469.712524,689.050171 
	C468.559357,688.841492 467.389069,688.249268 466.027527,687.386230 
z"/>
<path fill="#344C60" opacity="1.000000" stroke="none" 
	d="
M469.836273,689.615479 
	C470.835175,689.840942 472.014374,690.311340 472.976135,690.963623 
	C471.844635,690.717163 470.930603,690.288818 469.836273,689.615479 
z"/>
<path fill="#32495D" opacity="1.000000" stroke="none" 
	d="
M514.776367,669.792542 
	C513.116455,672.813843 512.859863,670.476013 512.350281,668.822632 
	C513.127319,668.863159 513.840027,669.224060 514.776367,669.792542 
z"/>
<path fill="#32495D" opacity="1.000000" stroke="none" 
	d="
M261.235291,569.195068 
	C261.908112,569.259155 262.813080,569.525452 263.685547,570.127869 
	C262.924500,570.108398 262.195984,569.752808 261.235291,569.195068 
z"/>
<path fill="#03AEEC" opacity="1.000000" stroke="none" 
	d="
M353.717773,828.573730 
	C354.259735,828.743713 354.857758,829.189819 355.217712,829.823669 
	C354.577637,829.624268 354.175720,829.237000 353.717773,828.573730 
z"/>
<path fill="#33BDF0" opacity="1.000000" stroke="none" 
	d="
M409.060120,828.613098 
	C408.469757,828.479919 407.779663,828.060303 407.047485,827.311584 
	C407.657013,827.430603 408.308685,827.878662 409.060120,828.613098 
z"/>
<path fill="#ABE7F9" opacity="1.000000" stroke="none" 
	d="
M589.741333,898.341187 
	C588.850464,898.534485 587.663147,898.524231 586.164673,898.330444 
	C587.050598,898.143799 588.247681,898.140686 589.741333,898.341187 
z"/>
<path fill="#ABE7F9" opacity="1.000000" stroke="none" 
	d="
M602.793701,898.606567 
	C601.945862,898.879211 600.854248,898.945618 599.362488,898.911255 
	C600.158203,898.673706 601.354065,898.536987 602.793701,898.606567 
z"/>
<path fill="#ABE7F9" opacity="1.000000" stroke="none" 
	d="
M615.833191,898.053467 
	C615.299866,898.338440 614.446411,898.524414 613.284302,898.573120 
	C613.821472,898.275452 614.667297,898.114929 615.833191,898.053467 
z"/>
<path fill="#ABE7F9" opacity="1.000000" stroke="none" 
	d="
M585.238403,304.013550 
	C585.753967,303.758240 586.577698,303.578522 587.692932,303.550049 
	C587.171814,303.830566 586.359253,303.959869 585.238403,304.013550 
z"/>
<path fill="#344C60" opacity="1.000000" stroke="none" 
	d="
M846.769592,577.685425 
	C847.021851,577.627258 847.029480,577.715759 847.041016,577.756775 
	C846.546143,578.169250 846.039734,578.540771 845.195007,578.912354 
	C845.410217,578.522766 845.963745,578.133179 846.769592,577.685425 
z"/>
<path fill="#32495D" opacity="1.000000" stroke="none" 
	d="
M303.448853,593.454224 
	C303.911560,593.368225 304.533813,593.549561 304.961670,593.932373 
	C304.381042,593.996460 303.994720,593.858948 303.448853,593.454224 
z"/>
<path fill="#ABE7F9" opacity="1.000000" stroke="none" 
	d="
M615.186951,303.929169 
	C615.444519,303.746674 616.067322,303.679047 616.879822,303.774414 
	C616.563782,303.972961 616.057922,304.008514 615.186951,303.929169 
z"/>
<path fill="#03AEEC" opacity="1.000000" stroke="none" 
	d="
M833.994873,358.631836 
	C833.741333,358.699066 833.397583,358.533081 833.066467,358.113037 
	C833.354248,358.038879 833.629517,358.218781 833.994873,358.631836 
z"/>
<path fill="#32495D" opacity="1.000000" stroke="none" 
	d="
M356.948486,578.677612 
	C356.526001,578.737244 355.916748,578.554077 355.196442,578.058228 
	C355.644135,577.975403 356.202911,578.205139 356.948486,578.677612 
z"/>
<path fill="#32495D" opacity="1.000000" stroke="none" 
	d="
M768.537231,622.915161 
	C769.079224,623.098145 769.392273,623.298279 769.847595,623.740784 
	C769.449341,623.934143 768.908813,623.885193 767.995056,623.658813 
	C767.746033,623.167664 767.974854,622.984619 768.537231,622.915161 
z"/>
<path fill="#32495D" opacity="1.000000" stroke="none" 
	d="
M481.032776,650.588257 
	C480.560333,650.716553 479.942657,650.557129 479.191803,650.089844 
	C479.668274,649.954956 480.277893,650.127747 481.032776,650.588257 
z"/>
<path fill="#344C60" opacity="1.000000" stroke="none" 
	d="
M651.365173,736.214050 
	C651.307922,735.963318 651.528809,735.645752 652.055786,735.349365 
	C652.122314,735.629456 651.882812,735.888306 651.365173,736.214050 
z"/>
<path fill="#344C60" opacity="1.000000" stroke="none" 
	d="
M832.662231,585.858887 
	C832.704102,586.096619 832.470886,586.397583 831.935425,586.687988 
	C831.884521,586.425659 832.135803,586.173828 832.662231,585.858887 
z"/>
<path fill="#344C60" opacity="1.000000" stroke="none" 
	d="
M844.667603,578.901733 
	C844.704163,579.140869 844.465515,579.425964 843.930542,579.700500 
	C843.886902,579.442566 844.139709,579.195068 844.667603,578.901733 
z"/>
<path fill="#32495D" opacity="1.000000" stroke="none" 
	d="
M358.228455,579.454895 
	C357.996002,579.602051 357.635345,579.501038 357.161804,579.130737 
	C357.399384,578.976501 357.749847,579.091614 358.228455,579.454895 
z"/>
<path fill="#32495D" opacity="1.000000" stroke="none" 
	d="
M479.094971,649.655762 
	C478.878418,649.718811 478.559753,649.508545 478.158630,649.014893 
	C478.381744,648.948547 478.687317,649.165466 479.094971,649.655762 
z"/>
<path fill="#9CAFB6" opacity="1.000000" stroke="none" 
	d="
M602.819946,667.737610 
	C602.783142,668.003784 602.490601,668.017456 602.346069,668.034790 
	C602.419922,667.858582 602.638367,667.664978 602.819946,667.737610 
z"/>
<path fill="#9CAFB6" opacity="1.000000" stroke="none" 
	d="
M603.219849,690.236206 
	C603.041199,690.294983 602.696411,690.181213 602.531738,689.897827 
	C602.711792,689.728271 603.053650,690.063782 603.219849,690.236206 
z"/>
<path fill="#9CAFB6" opacity="1.000000" stroke="none" 
	d="
M599.081909,689.929199 
	C599.381470,690.081299 599.518860,690.393311 599.656250,690.705383 
	C599.426147,690.727356 599.196045,690.749268 598.786133,690.595581 
	C598.606262,690.419861 598.919739,690.089233 599.081909,689.929199 
z"/>
<path fill="#27BBF0" opacity="1.000000" stroke="none" 
	d="
M375.003967,841.001587 
	C373.713898,838.316223 374.902588,836.554626 376.809540,834.566406 
	C379.438202,831.825684 383.330719,829.954346 383.101837,825.009949 
	C382.902191,820.696838 381.292908,817.502991 377.469574,815.860291 
	C373.635284,814.212830 369.682037,814.269226 366.296906,817.277649 
	C365.180725,818.269592 363.966339,819.240234 363.142242,820.454895 
	C360.763306,823.961487 357.646515,824.893860 353.725311,823.611572 
	C356.277954,815.132385 368.680817,807.427429 376.997406,809.153748 
	C386.141998,811.051941 391.924103,822.876648 387.369812,831.035522 
	C385.465637,834.446838 382.718811,837.453857 379.996674,840.302124 
	C379.186432,841.149902 377.158722,840.834106 375.342834,841.021729 
	C374.996857,840.992126 375.000000,841.000000 375.003967,841.001587 
z"/>
<path fill="#627486" opacity="1.000000" stroke="none" 
	d="
M505.396210,708.992798 
	C503.559082,708.019104 502.119385,707.035706 500.337219,706.029907 
	C497.581055,704.670959 495.167358,703.334351 492.384430,701.990601 
	C488.127991,698.220764 486.732758,693.911255 488.925751,688.700562 
	C491.284698,683.095398 495.269135,679.475891 501.319183,678.386414 
	C507.559906,677.262573 512.148438,679.969299 515.687439,684.312439 
	C510.169342,689.751648 504.897705,694.947876 499.280029,700.485168 
	C496.846680,699.225708 496.085693,697.426208 498.947906,694.477539 
	C501.793915,691.545471 504.253906,688.238708 507.350494,684.537720 
	C505.131958,684.537720 502.128662,683.682983 500.180328,684.751648 
	C497.684082,686.120850 494.738922,688.794739 494.262787,691.333252 
	C492.722931,699.542725 495.986816,702.574524 502.642639,703.852722 
	C508.104767,704.901733 513.013855,700.103699 514.014221,693.749634 
	C514.328247,691.754944 515.374573,689.875549 516.797668,688.084045 
	C519.928467,691.736084 519.564026,695.619690 518.267273,699.288269 
	C516.232483,705.044739 512.267456,708.733643 505.396210,708.992798 
z"/>
<path fill="#344C60" opacity="1.000000" stroke="none" 
	d="
M690.555054,690.470093 
	C690.380310,690.995605 690.099487,691.276489 689.818726,691.557434 
	C689.648621,691.039368 689.478516,690.521240 689.308472,690.003174 
	C689.688660,690.077271 690.068848,690.151367 690.555054,690.470093 
z"/>
<path fill="#344C60" opacity="1.000000" stroke="none" 
	d="
M685.970215,686.033081 
	C685.405945,685.814392 684.841736,685.595642 684.277466,685.376953 
	C684.398438,685.148743 684.519348,684.920593 684.640320,684.692383 
	C685.018005,684.973633 685.395752,685.254883 685.883911,685.771606 
	C685.994385,686.007080 685.970215,686.033081 685.970215,686.033081 
z"/>
<path fill="#344C60" opacity="1.000000" stroke="none" 
	d="
M686.008423,685.996704 
	C686.504395,686.379517 686.986389,686.772705 687.468445,687.165894 
	C687.297119,687.330322 687.125793,687.494751 686.954468,687.659180 
	C686.661926,687.286072 686.369385,686.912903 686.023560,686.286438 
	C685.970215,686.033081 685.994385,686.007080 686.008423,685.996704 
z"/>
<path fill="#344C60" opacity="1.000000" stroke="none" 
	d="
M819.998901,635.000671 
	C819.883362,634.867371 819.768921,634.733398 819.654419,634.599426 
	C819.731995,634.647461 819.809631,634.695435 819.944336,634.870605 
	C820.001404,634.997803 820.000000,635.000000 819.998901,635.000671 
z"/>
<path fill="#32495D" opacity="1.000000" stroke="none" 
	d="
M355.542419,583.476074 
	C355.567352,583.521362 355.517517,583.430786 355.542419,583.476074 
z"/>
<path fill="#445A6F" opacity="1.000000" stroke="none" 
	d="
M803.441711,646.522156 
	C803.404846,646.462891 803.478577,646.581421 803.441711,646.522156 
z"/>
</svg>